<svg id="Ebene_1" data-name="Ebene 1" xmlns="http://www.w3.org/2000/svg" viewBox="0 0 98.55 98.55"><defs><style>.cls-1,.cls-4{fill:none;stroke:#fff;stroke-miterlimit:10;}.cls-1{stroke-width:3px;}.cls-2{opacity:0.33;}.cls-3{fill:#fff;}.cls-4{stroke-width:6px;}</style></defs><title>github-bubble</title><path class="cls-1" d="M82.62,49.4c0-5.59-2.66-10.71-7.08-14.71,2.22-5,2.07-9.41.32-10.73-1.92-1.45-6.83-.08-11.46,4.37A40.59,40.59,0,0,0,38,28.68c-4.15-4.45-8.7-6.12-10.68-4.88s-2.47,6-.25,11.62a19.59,19.59,0,0,0-6.31,14c0,10.1,8.7,18.69,20.8,21.83a5.12,5.12,0,0,0-2.09,4.12v3a17.72,17.72,0,0,1-7.08.73c-5.29-1-6.23-9.55-12.65-9.59-5.6,0,.43,3,2.09,5.24,1.42,1.86,2.74,6.37,5.81,8.4,3.31,2.17,7.64,2.25,11.83,1.56v7.17A5.13,5.13,0,0,0,44.56,97H58.79a5.14,5.14,0,0,0,5.13-5.12V75.35a5.1,5.1,0,0,0-2.1-4.12C73.93,68.09,82.62,59.5,82.62,49.4Z" transform="translate(-0.73 -0.73)"/><g class="cls-2"><path class="cls-3" d="M88.2,50c0,21.16-59.74-38.57-38.58-38.57A38.76,38.76,0,0,1,88.2,50Z" transform="translate(-0.73 -0.73)"/></g><circle class="cls-4" cx="49.27" cy="49.27" r="46.27"/></svg>